<svg xmlns="http://www.w3.org/2000/svg" width="5.3cm" height="0.8cm" viewBox="0 0 150.2 22.7"><defs><style>.a{fill:#ffc250;}.b{fill:#ffd064;}.c{fill:#ffe19d;}.d{fill:#f7931a;}</style></defs><path class="a" d="M19.8,19.2c-6,1.9-15.8-.1-15.9-8.5S14.3,7.3,14.3,7.3Z"/><path class="b" d="M6.8,6c4.3-.7,7.5,4.9,11.1,10.7S30.7,24.9,36.6,20,44.9,6.4,37.7,1.3s-11.8,6.5-18,6.8S13.3,3.9,6.8,6Z"/><circle class="c" cx="37.1" cy="11" r="1.9"/><circle class="c" cx="33.5" cy="12.4" r="1.4"/><circle class="c" cx="36" cy="14.3" r="1"/><path class="d" d="M81.7,18.9a4.7,4.7,0,0,1-2.8-.9,4,4,0,0,1-1.1-3.1V10.1H75.9V7.7h1.9l.4-3.1h2.5V7.7h3.1v2.4H80.7V15a2.8,2.8,0,0,0,.4,1.2,1.7,1.7,0,0,0,1.2.2h1.4v2.5Zm7.6.3a6.4,6.4,0,0,1-2.4-.5,2.8,2.8,0,0,1-1.4-1.2,3.4,3.4,0,0,1-.5-1.7,3.7,3.7,0,0,1,1.2-2.6,6,6,0,0,1,3.7-.9h2.8V12a1.8,1.8,0,0,0-.6-1.7,2.4,2.4,0,0,0-3.1-.1,1.6,1.6,0,0,0-.9,1.2H85.3a3.2,3.2,0,0,1,.8-2.1,6.5,6.5,0,0,1,1.8-1.5,7.5,7.5,0,0,1,2.6-.4,5.3,5.3,0,0,1,3.8,1.2A4.2,4.2,0,0,1,95.7,12v6.9H93.2l-.3-1.8a4,4,0,0,1-1.4,1.5A4.3,4.3,0,0,1,89.3,19.2Zm.6-2.3a2.7,2.7,0,0,0,1.9-.8,4,4,0,0,0,.9-2H90.2a1.8,1.8,0,0,0-1.6.4,1.3,1.3,0,0,0-.2,1.8l.2.2A1.8,1.8,0,0,0,89.9,16.9Zm12.5,2a4.7,4.7,0,0,1-2.8-.9,4,4,0,0,1-1.1-3.1V10.1h-2V7.7h2l.3-3.1h2.6V7.7h3.1v2.4h-3.1V15a2.7,2.7,0,0,0,.3,1.2,1.9,1.9,0,0,0,1.3.2h1.4v2.5Zm23.2.3a5.4,5.4,0,0,1-2.2-.5,5.1,5.1,0,0,1-1.6-1.3l-.3,1.5h-2.6V2.6h2.9V9.3a6.2,6.2,0,0,1,1.4-1.4,3.9,3.9,0,0,1,2.4-.5,5.8,5.8,0,0,1,2.8.7,6,6,0,0,1,2.7,5.2,6.3,6.3,0,0,1-.7,3,6.7,6.7,0,0,1-2,2.1A5.7,5.7,0,0,1,125.6,19.2Zm-.6-2.6a3.3,3.3,0,0,0,2.3-.9,3.1,3.1,0,0,0,.8-2.4,3,3,0,0,0-.8-2.4,3.3,3.3,0,0,0-4.7,0h0a3.8,3.8,0,0,0-.8,2.3,4.4,4.4,0,0,0,.8,2.5A3.4,3.4,0,0,0,125,16.6Zm9.4-10.7a2.4,2.4,0,0,1-1.4-.5,1.2,1.2,0,0,1-.4-1.1A1.6,1.6,0,0,1,133,3a2.2,2.2,0,0,1,2.7,0,2.9,2.9,0,0,1,.5,1.3,2.2,2.2,0,0,1-.5,1.1A2.4,2.4,0,0,1,134.4,5.9Zm-1.5,13V7.7h2.9V18.9Zm10,0a3.7,3.7,0,0,1-2.8-.9c-.7-.5-1-1.6-1-3.1V10.1h-2V7.7h2l.3-3.1h2.5V7.7h2.9v2.4h-2.9V15a1.9,1.9,0,0,0,.4,1.2,1.4,1.4,0,0,0,1.1.2h1.4v2.5Z"/><path class="d" d="M58.1,3.1H51.2c-.2,0-.4,0-.4.4V18.8h2.8v-5c0-.5.1-.6.6-.6h3.7c1.6-.1,3-.4,3.8-2C63.8,7.9,61.8,3.4,58.1,3.1Zm1.5,5.1a2.5,2.5,0,0,1-2.1,2.6H54c-.3,0-.4-.1-.4-.4V6.2c0-.3.1-.4.4-.4h3.5A2.4,2.4,0,0,1,59.6,8.2Z"/><path class="d" d="M117.5,12.7v-.4a5.5,5.5,0,0,0-6-4.9h-.4a5.4,5.4,0,0,0-5.7,5.2h0a5.7,5.7,0,0,0,5.3,6.2c3.3.3,6.4-1.8,6.8-4.8A3.3,3.3,0,0,0,117.5,12.7Zm-6.1,3.6a3.3,3.3,0,0,1-3.2-3.2,3.2,3.2,0,0,1,3.2-3.1,3.1,3.1,0,0,1,3.2,3.1A3.2,3.2,0,0,1,111.4,16.3Z"/><path class="d" d="M75.1,12.7v-.4a5.4,5.4,0,0,0-6-4.9h-.4A5.5,5.5,0,0,0,63,12.6h0a5.8,5.8,0,0,0,5.3,6.2c3.3.3,6.4-1.8,6.8-4.8A3.3,3.3,0,0,0,75.1,12.7Zm-6,3.6a3.2,3.2,0,0,1-3.2-3.2A3.1,3.1,0,0,1,69.1,10a3.2,3.2,0,0,1,3.2,3.1A3.3,3.3,0,0,1,69.1,16.3Z"/></svg>