<svg xmlns="http://www.w3.org/2000/svg" width="2.3cm" height="1.8cm" viewBox="0 0 64 50"><defs><style>.a{fill:#ffc250;}.b{fill:#ffd064;}.c{fill:#ffe19d;}.d{fill:#ffe9d5;}</style></defs><path class="a" d="M28.6,20.3c-6.4,2-16.8-.1-16.9-9s11-3.6,11-3.6Z"/><path class="b" d="M14.8,6.4c4.5-.8,7.9,5.1,11.7,11.3s13.6,8.7,19.8,3.5,9-14.4,1.3-19.8S35.1,8.3,28.4,8.6,21.8,4.1,14.8,6.4Z"/><circle class="c" cx="46.9" cy="11.6" r="2"/><circle class="c" cx="43.1" cy="13.1" r="1.5"/><circle class="c" cx="45.8" cy="15.1" r="1.1"/><path class="d" d="M41.1,44v-.6l1-.9.9-.8a2.4,2.4,0,0,0,.6-.9,1.2,1.2,0,0,0,.2-.8.9.9,0,0,0-.1-.5c0-.1-.1-.2-.2-.3l-.6-.2a.8.8,0,0,0-.7.3,1.3,1.3,0,0,0-.3.8h-.8a3,3,0,0,1,.2-1l.7-.6.9-.2a1.7,1.7,0,0,1,1.3.5,1.5,1.5,0,0,1,.5,1.2,1.6,1.6,0,0,1-.3.9,4.1,4.1,0,0,1-.5.9l-.8.8-.8.7h2.5V44Zm6.8.1a2,2,0,0,1-1.3-.4,2.1,2.1,0,0,1-.8-1,3.9,3.9,0,0,1,0-3,2.7,2.7,0,0,1,.8-1,2,2,0,0,1,1.3-.4,1.8,1.8,0,0,1,1.3.4,2.2,2.2,0,0,1,.9,1,3.9,3.9,0,0,1,0,3,1.8,1.8,0,0,1-.9,1A1.8,1.8,0,0,1,47.9,44.1Zm0-.8a1.1,1.1,0,0,0,.8-.2,1.2,1.2,0,0,0,.6-.8,3.1,3.1,0,0,0,0-2.2,1.2,1.2,0,0,0-.6-.8,1.1,1.1,0,0,0-.8-.2,1.2,1.2,0,0,0-.8.2,1.6,1.6,0,0,0-.5.8,2,2,0,0,0-.2,1.1,2,2,0,0,0,.2,1.1,1.6,1.6,0,0,0,.5.8A1.2,1.2,0,0,0,47.9,43.3Zm3.2.7v-.6l1.1-.9.9-.8.6-.9a2.4,2.4,0,0,0,.2-.8.9.9,0,0,0-.1-.5q0-.2-.3-.3L53,39a1.1,1.1,0,0,0-.8.3,2.4,2.4,0,0,0-.2.8h-.8a3,3,0,0,1,.2-1l.7-.6.9-.2a1.9,1.9,0,0,1,1.3.5,1.5,1.5,0,0,1,.4,1.2,1.5,1.5,0,0,1-.2.9,2.4,2.4,0,0,1-.6.9,3,3,0,0,1-.8.8l-.7.7h2.5V44Zm4.8,0v-.6l1.1-.9.9-.8.6-.9a2.4,2.4,0,0,0,.2-.8.9.9,0,0,0-.1-.5q0-.2-.3-.3l-.5-.2a1.1,1.1,0,0,0-.8.3,2.4,2.4,0,0,0-.2.8H56a3,3,0,0,1,.2-1l.7-.6.9-.2a1.9,1.9,0,0,1,1.3.5,1.5,1.5,0,0,1,.5,1.2,1.6,1.6,0,0,1-.3.9,2.4,2.4,0,0,1-.6.9l-.7.8-.8.7h2.5V44Z"/><path class="d" d="M15.4,43.9a1.7,1.7,0,0,1-1-.3,1.2,1.2,0,0,1-.4-1.1V40.8h-.7v-.9H14v-1h1v1h1.1v.9H15.1v1.8c-.1.1,0,.2.1.4h.9v.8Zm2.8.1h-.9a1.2,1.2,0,0,1-.5-.5,1.4,1.4,0,0,1-.2-.6,1.2,1.2,0,0,1,.5-.9,1.9,1.9,0,0,1,1.3-.3h1a.5.5,0,0,0-.2-.6.7.7,0,0,0-.6-.2h-.5a.5.5,0,0,0-.3.5H16.7a1.9,1.9,0,0,1,.3-.8,1.8,1.8,0,0,1,.7-.5l.9-.2a2.4,2.4,0,0,1,1.4.5,1.1,1.1,0,0,1,.5,1.2v2.4h-.9v-.6a1.4,1.4,0,0,1-1.3.7Zm.2-.8a1,1,0,0,0,1-1H17.9c-.1.1-.2.3-.1.4s0,.3.1.4Zm4.6.7a2,2,0,0,1-1.1-.3,1.1,1.1,0,0,1-.3-1.1V40.8h-.8v-.9h.8v-1h.9v1h1.1v.9H22.6v1.8c0,.1.1.2.1.4h1v.8Zm8.2.1h-.8l-.6-.5v.5h-1V38.1h1.1v2.4l.5-.5.9-.2a1.7,1.7,0,0,1,1,.3,3,3,0,0,1,.8.8,3.6,3.6,0,0,1,.2,1A3.6,3.6,0,0,1,33,43a3,3,0,0,1-.8.8Zm-.2-.9a1.1,1.1,0,0,0,.8-.3,1.2,1.2,0,0,0,.3-.9,1.1,1.1,0,0,0-.3-.8,1.2,1.2,0,0,0-.8-.4,1.1,1.1,0,0,0-.9.4,1.1,1.1,0,0,0-.3.8,1.6,1.6,0,0,0,.3.9,1.4,1.4,0,0,0,.9.3Zm3.4-3.8c-.2,0-.4,0-.5-.2s-.1-.2-.1-.4,0-.3.1-.4a.9.9,0,0,1,1,0,.8.8,0,0,1,.2.4.5.5,0,0,1-.2.4c-.1.2-.3.2-.5.2Zm-.5,4.6v-4h1v4Zm3.7,0a2,2,0,0,1-1.1-.3c-.3-.2-.4-.5-.4-1.1V40.8h-.7v-.9h.7v-1h1v1h1.1v.9H37.2v1.8a.8.8,0,0,0,.1.4h1v.8Z"/><path class="d" d="M7,38.3H4.5c-.1,0-.2,0-.2.2v5.4h1V42.1c0-.2.1-.2.2-.2H6.9a1.5,1.5,0,0,0,1.4-.7A1.9,1.9,0,0,0,7,38.3Zm.5,1.8a.8.8,0,0,1-.8.9H5.5c-.1,0-.2,0-.2-.1V39.4c0-.1.1-.1.2-.1H6.7a.8.8,0,0,1,.8.8Z"/><path class="d" d="M28.4,41.8a2.1,2.1,0,0,0-2.2-2h-.1A2.2,2.2,0,0,0,24,41.9a2.2,2.2,0,1,0,4.4,0ZM26.8,43a1.1,1.1,0,0,1-1.4-.2,1.5,1.5,0,0,1-.1-1.7,1.1,1.1,0,0,1,1.2-.4,1.1,1.1,0,0,1,.8.9.4.4,0,0,0,.1.3C27.3,42.4,27.2,42.8,26.8,43Z"/><path class="d" d="M10.9,39.8h-.1a2.2,2.2,0,0,0-2.1,2.1A2.1,2.1,0,0,0,10.8,44a2.1,2.1,0,1,0,.1-4.2Zm.5,3.2a.9.9,0,0,1-1.3-.2,1.5,1.5,0,0,1-.1-1.7,1.1,1.1,0,0,1,1.2-.4,1.1,1.1,0,0,1,.8.9.4.4,0,0,0,.1.3A1.4,1.4,0,0,1,11.4,43Z"/></svg>